<svg width="18" height="18" viewBox="0 0 18 18" fill="none" xmlns="http://www.w3.org/2000/svg">
<path d="M1.89774 5.31804C6.246 6.6611 11.7533 6.6611 16.1007 5.31804M16.1016 12.6813C11.7533 11.3382 6.246 11.3382 1.89863 12.6813M8.99967 1C13.4279 1 16.9993 4.57141 16.9993 8.99967C16.9993 13.4279 13.4279 16.9993 8.99967 16.9993C4.57141 16.9993 1 13.4279 1 8.99967C1 4.57141 4.57141 1 8.99967 1ZM7.37129 1.94218C4.80251 6.23089 4.80251 11.7693 7.37129 16.058C8.12326 17.314 9.87696 17.314 10.6289 16.058C13.1977 11.7693 13.1977 6.23089 10.6289 1.94218C9.87607 0.686235 8.12326 0.686235 7.37129 1.94218Z" stroke="white" stroke-linecap="round" stroke-linejoin="round"/>
</svg>
