<svg width="188" height="45" viewBox="0 0 188 45" fill="none" xmlns="http://www.w3.org/2000/svg">
<path d="M23 45C35.7026 45 46 34.9264 46 22.5C46 10.0736 35.7026 0 23 0C10.2974 0 0 10.0736 0 22.5C0 34.9264 10.2974 45 23 45Z" fill="#162F71"/>
<path d="M23 40.7812C33.3208 40.7812 41.6875 32.5964 41.6875 22.5C41.6875 12.4036 33.3208 4.21875 23 4.21875C12.6792 4.21875 4.3125 12.4036 4.3125 22.5C4.3125 32.5964 12.6792 40.7812 23 40.7812Z" stroke="white" stroke-width="1.5"/>
<path d="M5.74999 20.25H2.29999V23.625H5.74999V20.25Z" fill="white"/>
<path d="M43.7 20.25H40.25V23.625H43.7V20.25Z" fill="white"/>
<path d="M16.5772 27.9752C19.8146 27.9752 21.8223 25.9167 21.8223 22.4945C21.8223 19.0779 19.8146 17.0247 16.572 17.0247H12.65V27.9752H16.5772ZM15.218 25.7188V19.2811H16.4423C18.2685 19.2811 19.249 20.1365 19.249 22.4945C19.249 24.8633 18.2685 25.7188 16.4787 25.7188H15.218Z" fill="white"/>
<path d="M33.35 22.5C33.35 18.8801 31.1296 16.875 28.2762 16.875C25.4124 16.875 23.2076 18.8801 23.2076 22.5C23.2076 26.1038 25.4124 28.125 28.2762 28.125C31.1296 28.125 33.35 26.1199 33.35 22.5ZM30.7249 22.5C30.7249 24.6441 29.8118 25.8045 28.2762 25.8045C26.7457 25.8045 25.8274 24.6441 25.8274 22.5C25.8274 20.3559 26.7457 19.1955 28.2762 19.1955C29.8118 19.1955 30.7249 20.3559 30.7249 22.5Z" fill="white"/>
<g filter="url(#filter0_d)">
<path d="M64.8433 13.8179C67.1273 13.8179 68.9 14.4289 70.1611 15.6509C71.4362 16.886 72.0738 18.627 72.0738 20.8739C72.0738 23.1273 71.4362 24.8848 70.1611 26.1462C68.8929 27.4076 67.1203 28.0383 64.8433 28.0383H59V13.8179H64.8433ZM62.1739 25.5746H64.4649C65.8872 25.5746 66.9697 25.1771 67.7124 24.3822C68.4621 23.5806 68.8369 22.4145 68.8369 20.8837C68.8369 19.399 68.4585 18.2591 67.7019 17.4641C66.9452 16.6692 65.8662 16.2717 64.4649 16.2717H62.1739V25.5746Z" fill="white"/>
<path d="M78.2534 26.0674C78.9751 26.0674 79.5776 25.8801 80.061 25.5056C80.5585 25.1246 80.8072 24.6417 80.8072 24.057V23.2588L78.3795 23.4164C77.0693 23.4953 76.4142 23.9453 76.4142 24.7665C76.4142 25.1673 76.5824 25.4827 76.9187 25.7126C77.248 25.9491 77.6929 26.0674 78.2534 26.0674ZM77.255 28.1664C76.127 28.1664 75.1986 27.8675 74.47 27.2696C73.7273 26.6587 73.356 25.8736 73.356 24.9144C73.356 23.9355 73.7483 23.1667 74.533 22.6083C75.3037 22.063 76.4318 21.7477 77.9171 21.6623L80.8072 21.4948V20.7754C80.8072 20.2563 80.6286 19.8556 80.2712 19.5731C79.9139 19.2971 79.4165 19.1592 78.7789 19.1592C78.2324 19.1592 77.7735 19.284 77.4021 19.5336C77.0378 19.7767 76.8171 20.0987 76.74 20.4994H73.934C73.976 19.4614 74.4525 18.6204 75.3633 17.9766C76.2811 17.3262 77.4617 17.001 78.905 17.001C80.3903 17.001 81.5814 17.3295 82.4782 17.9864C83.375 18.6434 83.8234 19.5139 83.8234 20.598V28.0383H80.8598V26.363H80.7967C80.4884 26.9214 80.005 27.3649 79.3464 27.6934C78.7088 28.0088 78.0117 28.1664 77.255 28.1664Z" fill="white"/>
<path d="M85.8938 17.1882H88.8575V19.1296H88.9205C89.3199 17.7499 90.2377 17.0601 91.674 17.0601C92.0173 17.0601 92.3046 17.0962 92.5358 17.1685V19.7208C92.2626 19.6026 91.8947 19.5435 91.4323 19.5435C90.6546 19.5435 90.0486 19.757 89.6142 20.184C89.1798 20.6111 88.9626 21.2056 88.9626 21.9677V28.0383H85.8938V17.1882Z" fill="white"/>
<path d="M95.3629 32C94.7393 32 94.3505 31.9868 94.1963 31.9605V29.7334C94.3014 29.7531 94.5326 29.7629 94.8899 29.7629C96.025 29.7629 96.7081 29.349 96.9393 28.5212L97.0444 28.1073L92.9877 17.1882H96.3508L98.852 25.7028H98.9151L101.427 17.1882H104.664L100.66 28.2552C100.169 29.6348 99.5246 30.6038 98.7259 31.1623C97.9342 31.7208 96.8132 32 95.3629 32Z" fill="white"/>
<path d="M105.82 17.1882H108.784V19.1296H108.847C109.526 17.7302 110.766 17.0305 112.567 17.0305C113.849 17.0305 114.858 17.3886 115.594 18.1047C116.322 18.8208 116.687 19.8128 116.687 21.0808V28.0383H113.618V21.682C113.618 20.9593 113.422 20.4041 113.029 20.0165C112.63 19.6223 112.07 19.4252 111.348 19.4252C110.612 19.4252 110.02 19.6486 109.572 20.0954C109.116 20.5421 108.889 21.1268 108.889 21.8495V28.0383H105.82V17.1882Z" fill="white"/>
<path d="M120.68 28.1567C120.211 28.1567 119.811 28.0022 119.482 27.6935C119.153 27.3847 118.988 27.0102 118.988 26.57C118.988 26.1233 119.153 25.7488 119.482 25.4466C119.811 25.1378 120.211 24.9834 120.68 24.9834C121.157 24.9834 121.556 25.1378 121.878 25.4466C122.208 25.7488 122.372 26.1233 122.372 26.57C122.372 27.0102 122.208 27.3847 121.878 27.6935C121.549 28.0022 121.15 28.1567 120.68 28.1567Z" fill="white"/>
<path d="M129.676 28.2256C127.918 28.2256 126.527 27.7263 125.504 26.7276C124.481 25.729 123.97 24.356 123.97 22.6083C123.97 20.8805 124.485 19.5107 125.515 18.4989C126.545 17.5003 127.932 17.001 129.676 17.001C131.428 17.001 132.815 17.5003 133.838 18.4989C134.868 19.5041 135.383 20.8739 135.383 22.6083C135.383 24.3625 134.872 25.7389 133.849 26.7375C132.833 27.7295 131.442 28.2256 129.676 28.2256ZM129.676 26.0082C130.489 26.0082 131.123 25.7126 131.579 25.1213C132.034 24.5234 132.262 23.6858 132.262 22.6083C132.262 21.544 132.031 20.7097 131.568 20.1052C131.113 19.5074 130.482 19.2084 129.676 19.2084C128.864 19.2084 128.23 19.5074 127.774 20.1052C127.312 20.7097 127.081 21.544 127.081 22.6083C127.081 23.6858 127.312 24.5234 127.774 25.1213C128.23 25.7126 128.864 26.0082 129.676 26.0082Z" fill="white"/>
<path d="M137.033 17.1882H139.997V19.1296H140.06C140.739 17.7302 141.979 17.0305 143.78 17.0305C145.062 17.0305 146.071 17.3886 146.807 18.1047C147.535 18.8208 147.9 19.8128 147.9 21.0808V28.0383H144.831V21.682C144.831 20.9593 144.635 20.4041 144.243 20.0165C143.843 19.6223 143.283 19.4252 142.561 19.4252C141.825 19.4252 141.233 19.6486 140.785 20.0954C140.329 20.5421 140.102 21.1268 140.102 21.8495V28.0383H137.033V17.1882Z" fill="white"/>
<path d="M150.023 13.1379H153.092V28.0384H150.023V13.1379Z" fill="white"/>
<path d="M155.309 17.1883H158.378V28.0384H155.309V17.1883ZM156.843 16.0057C156.388 16.0057 155.999 15.8612 155.677 15.5721C155.355 15.283 155.193 14.925 155.193 14.4979C155.193 14.0709 155.355 13.7128 155.677 13.4238C155.999 13.1413 156.388 13 156.843 13C157.306 13 157.698 13.1413 158.02 13.4238C158.343 13.7128 158.504 14.0709 158.504 14.4979C158.504 14.925 158.343 15.283 158.02 15.5721C157.698 15.8612 157.306 16.0057 156.843 16.0057Z" fill="white"/>
<path d="M160.511 17.1882H163.475V19.1296H163.538C164.218 17.7302 165.458 17.0305 167.258 17.0305C168.541 17.0305 169.549 17.3886 170.285 18.1047C171.014 18.8208 171.378 19.8128 171.378 21.0808V28.0383H168.309V21.682C168.309 20.9593 168.113 20.4041 167.721 20.0165C167.321 19.6223 166.761 19.4252 166.039 19.4252C165.304 19.4252 164.712 19.6486 164.263 20.0954C163.808 20.5421 163.58 21.1268 163.58 21.8495V28.0383H160.511V17.1882Z" fill="white"/>
<path d="M178.577 19.1493C177.876 19.1493 177.291 19.3661 176.822 19.7997C176.36 20.2333 176.1 20.7983 176.044 21.4948H181.036C181.008 20.7852 180.77 20.2169 180.322 19.7899C179.873 19.3628 179.292 19.1493 178.577 19.1493ZM183.905 24.7271C183.737 25.7783 183.173 26.6226 182.213 27.2598C181.254 27.9036 180.069 28.2256 178.661 28.2256C176.903 28.2256 175.515 27.7295 174.499 26.7375C173.491 25.7454 172.986 24.3855 172.986 22.6576C172.986 20.9297 173.487 19.5566 174.489 18.5383C175.498 17.5134 176.85 17.001 178.546 17.001C180.213 17.001 181.537 17.4871 182.518 18.4595C183.506 19.4318 184 20.7425 184 22.3915V23.2785H176.013V23.4558C176.013 24.2377 176.262 24.8716 176.759 25.3578C177.256 25.8374 177.908 26.0773 178.714 26.0773C179.295 26.0773 179.796 25.9557 180.217 25.7126C180.644 25.4761 180.931 25.1476 181.078 24.7271H183.905Z" fill="white"/>
</g>
<defs>
<filter id="filter0_d" x="55" y="13" width="133" height="27" filterUnits="userSpaceOnUse" color-interpolation-filters="sRGB">
<feFlood flood-opacity="0" result="BackgroundImageFix"/>
<feColorMatrix in="SourceAlpha" type="matrix" values="0 0 0 0 0 0 0 0 0 0 0 0 0 0 0 0 0 0 127 0"/>
<feOffset dy="4"/>
<feGaussianBlur stdDeviation="2"/>
<feColorMatrix type="matrix" values="0 0 0 0 0 0 0 0 0 0 0 0 0 0 0 0 0 0 0.25 0"/>
<feBlend mode="normal" in2="BackgroundImageFix" result="effect1_dropShadow"/>
<feBlend mode="normal" in="SourceGraphic" in2="effect1_dropShadow" result="shape"/>
</filter>
</defs>
</svg>
