<svg width="46" height="45" viewBox="0 0 46 45" fill="none" xmlns="http://www.w3.org/2000/svg">
<path d="M23 45C35.7026 45 46 34.9264 46 22.5C46 10.0736 35.7026 0 23 0C10.2974 0 0 10.0736 0 22.5C0 34.9264 10.2974 45 23 45Z" fill="#162F71"/>
<path d="M23 40.7812C33.3208 40.7812 41.6875 32.5964 41.6875 22.5C41.6875 12.4036 33.3208 4.21875 23 4.21875C12.6792 4.21875 4.3125 12.4036 4.3125 22.5C4.3125 32.5964 12.6792 40.7812 23 40.7812Z" stroke="white" stroke-width="1.5"/>
<path d="M5.74999 20.25H2.29999V23.625H5.74999V20.25Z" fill="white"/>
<path d="M43.7 20.25H40.25V23.625H43.7V20.25Z" fill="white"/>
<path d="M16.5772 27.9752C19.8146 27.9752 21.8223 25.9167 21.8223 22.4945C21.8223 19.0779 19.8146 17.0247 16.572 17.0247H12.65V27.9752H16.5772ZM15.218 25.7188V19.2811H16.4423C18.2685 19.2811 19.249 20.1365 19.249 22.4945C19.249 24.8633 18.2685 25.7188 16.4787 25.7188H15.218Z" fill="white"/>
<path d="M33.35 22.5C33.35 18.8801 31.1296 16.875 28.2762 16.875C25.4124 16.875 23.2076 18.8801 23.2076 22.5C23.2076 26.1038 25.4124 28.125 28.2762 28.125C31.1296 28.125 33.35 26.1199 33.35 22.5ZM30.7249 22.5C30.7249 24.6441 29.8118 25.8045 28.2762 25.8045C26.7457 25.8045 25.8274 24.6441 25.8274 22.5C25.8274 20.3559 26.7457 19.1955 28.2762 19.1955C29.8118 19.1955 30.7249 20.3559 30.7249 22.5Z" fill="white"/>
</svg>
